# xmcd CD database file
#
# Track frame offsets:
#	150
#	29462
#	54619
#	83668
#	111988
#	136331
#	149533
#	174958
#	208560
#
# Disc length: 2978 seconds
#
# Revision: 0
# Processed by: cddbd v1.5.1PL2 Copyright (c) Steve Scherf et al.
# Submitted via: CDex 1.51
#
DISCID=7c0ba009
DTITLE=Satragno/Cables - ODLA
DYEAR=2001
DGENRE=Jazz
TTITLE0=Star dust
TTITLE1=Bye bye blackbird
TTITLE2=My one and only love
TTITLE3=Caravan
TTITLE4=When I fall in love
TTITLE5=Rhythm-a-ning
TTITLE6=But not for me
TTITLE7=Round about midnight
TTITLE8=It don't mean a thing
EXTD=YEAR: 2001
EXTT0=
EXTT1=
EXTT2=
EXTT3=
EXTT4=
EXTT5=
EXTT6=
EXTT7=
EXTT8=
PLAYORDER=
